<svg id="Layer_1" xmlns="http://www.w3.org/2000/svg" viewBox="0 0 196.6 58.2"><style>.st0{enable-background:new}.st1{fill:#f8793f}</style><title>uyBor_logo_1</title><g class="st0"><path class="st1" d="M86.1 41.2c0 1.7-1.4 3.1-3.2 3.1-1.7 0-3.2-1.3-3.2-3.1v-1.4c-1.8 2.6-4.3 4.8-8.5 4.8-6.2 0-9.7-4.1-9.7-10.5V19.5c0-1.8 1.4-3.2 3.1-3.2 1.8 0 3.2 1.4 3.2 3.2v12.7c0 4.2 2.1 6.6 5.9 6.6 3.6 0 6.2-2.5 6.2-6.7V19.5c0-1.8 1.4-3.2 3.2-3.2 1.7 0 3.2 1.4 3.2 3.2v21.7zm5.8 10.5c-.9-.3-2-1.1-2-2.6 0-1.6 1.2-2.6 2.5-2.6.5 0 .8.1 1.1.2.7.2 1.3.4 2.2.4 1.9 0 2.8-.8 3.9-2.9l.2-.6-10-22.7c-.2-.5-.4-1.1-.4-1.5 0-1.8 1.3-3.1 3.1-3.1 1.6 0 2.5.9 3.1 2.4l7.4 18.2 6.8-18.2c.5-1.3 1.4-2.4 3-2.4 1.7 0 3 1.3 3 3 0 .5-.2 1.2-.3 1.5l-10 24c-2.3 5.6-4.8 7.7-9.2 7.7-1.8-.1-3.1-.3-4.4-.8z"/></g><g class="st0"><path class="st1" d="M120 7.3c0-.8.5-1.3 1.2-1.3s1.3.5 1.3 1.3v16.2c2.3-3.5 5.6-6.5 10.9-6.5 6.4 0 12.8 5.1 12.8 13.7v.1c0 8.6-6.5 13.8-12.8 13.8-5.3 0-8.7-3-10.9-6.3v4.6c0 .7-.5 1.3-1.2 1.3s-1.3-.6-1.3-1.3V7.3zm23.5 23.6v-.1c0-6.9-4.8-11.4-10.4-11.4-5.5 0-10.8 4.6-10.8 11.3v.1c0 6.8 5.3 11.3 10.8 11.3 5.8.1 10.4-4.1 10.4-11.2zm6.3 0v-.1c0-7.4 5.7-13.8 13.6-13.8 7.8 0 13.5 6.3 13.5 13.7v.1c0 7.4-5.7 13.8-13.6 13.8-7.8 0-13.5-6.3-13.5-13.7zm24.4 0v-.1c0-6.4-4.8-11.4-10.9-11.4-6.3 0-10.8 5.1-10.8 11.3v.1c0 6.4 4.8 11.4 10.9 11.4 6.3 0 10.8-5.1 10.8-11.3zm7.9-12.2c0-.7.5-1.3 1.2-1.3s1.3.5 1.3 1.3v6.4c2.3-5.1 6.9-7.9 10.6-7.9.8 0 1.3.6 1.3 1.4 0 .7-.5 1.3-1.3 1.4-5.6.5-10.6 4.7-10.6 13.2v9.7c0 .7-.5 1.3-1.2 1.3s-1.3-.5-1.3-1.3V18.7z"/></g><path class="st1" d="M21.1 13.3l16.2 10v21.9H4.8V23.3l16.3-10m0-5.6l-21 13V50h42V20.7l-21-13z"/></svg>